<?xml version="1.0" standalone="no"?>
<!DOCTYPE svg PUBLIC "-//W3C//DTD SVG 20010904//EN"
 "http://www.w3.org/TR/2001/REC-SVG-20010904/DTD/svg10.dtd">
<svg version="1.0" xmlns="http://www.w3.org/2000/svg"
 width="1446.000000pt" height="1446.000000pt" viewBox="0 0 1446.000000 1446.000000"
 preserveAspectRatio="xMidYMid meet">
<metadata>
Created by potrace 1.11, written by Peter Selinger 2001-2013
</metadata>
<g transform="translate(0.000000,1446.000000) scale(0.100000,-0.100000)"
fill="#000000" stroke="none">
<path d="M6895 13454 c-22 -2 -105 -9 -185 -14 -187 -14 -463 -51 -665 -90
-2616 -504 -4635 -2638 -4990 -5275 -42 -317 -50 -450 -50 -855 1 -413 11
-568 61 -905 224 -1512 989 -2874 2169 -3865 1050 -881 2350 -1383 3740 -1445
175 -8 670 9 870 30 548 56 1052 172 1540 352 1915 709 3368 2316 3875 4288
183 712 240 1507 159 2245 -198 1820 -1199 3467 -2729 4490 -866 580 -1859
930 -2910 1025 -163 15 -790 28 -885 19z m710 -174 c1060 -70 2065 -404 2940
-977 363 -238 633 -460 966 -792 251 -251 381 -400 565 -643 1137 -1509 1501
-3484 978 -5310 -171 -599 -440 -1179 -788 -1697 -229 -341 -443 -599 -756
-911 -312 -313 -570 -527 -911 -756 -1287 -864 -2869 -1200 -4403 -935 -1056
183 -2024 633 -2871 1337 -167 139 -590 561 -729 729 -335 403 -580 779 -806
1238 -666 1347 -801 2908 -380 4362 396 1365 1272 2557 2465 3352 462 308 935
537 1470 712 485 159 987 257 1485 290 180 12 600 12 775 1z"/>
<path d="M7033 12652 c-6 -27 1 -37 48 -60 21 -11 36 -27 41 -46 7 -27 -6
-542 -16 -665 -5 -60 -24 -87 -67 -96 -25 -6 -29 -11 -29 -41 l0 -34 203 -1
c111 -1 248 -4 305 -8 56 -3 102 -6 102 -6 2 0 30 329 30 348 0 22 -4 27 -24
27 -20 0 -24 -6 -30 -40 -14 -90 -82 -207 -136 -235 -40 -21 -103 -19 -130 3
-22 18 -23 24 -21 168 4 301 17 569 30 591 6 13 24 26 39 29 38 9 52 23 52 50
0 24 -1 24 -107 25 -60 0 -148 4 -196 7 -86 7 -88 7 -94 -16z"/>
<path d="M6453 12642 c-7 -4 -43 -186 -83 -412 -39 -223 -77 -425 -85 -449
-22 -66 -50 -91 -101 -91 -55 0 -75 17 -214 186 l-112 135 20 22 c75 83 68
240 -16 338 -79 92 -185 103 -371 40 -64 -22 -151 -49 -194 -60 -43 -11 -81
-22 -84 -25 -4 -3 -1 -17 5 -31 9 -18 19 -25 41 -25 65 0 74 -19 182 -373 54
-181 99 -340 99 -353 0 -15 -13 -37 -34 -57 -28 -26 -33 -36 -25 -54 11 -29
19 -29 117 7 45 16 120 39 167 51 73 19 85 24 85 43 0 32 -12 43 -48 44 -18 0
-40 6 -48 13 -11 9 -66 169 -100 292 -6 20 25 24 56 7 10 -5 71 -83 136 -172
64 -90 119 -164 120 -166 1 -2 33 8 71 21 85 31 245 65 341 74 40 3 75 10 78
15 3 5 3 20 0 34 -5 19 -13 24 -36 24 -43 0 -54 30 -45 123 l7 75 99 12 c55 7
101 11 103 9 4 -6 44 -112 51 -137 8 -28 -18 -62 -47 -62 -14 0 -18 -8 -18
-35 0 -41 3 -42 116 -20 43 8 120 18 172 21 51 4 95 11 98 16 10 16 -6 58 -22
58 -25 0 -73 29 -86 53 -7 12 -87 200 -179 417 -169 402 -178 417 -216 392z
m-791 -323 c34 -40 78 -172 78 -233 0 -28 -7 -52 -20 -68 -23 -29 -77 -55 -89
-42 -11 13 -101 316 -101 341 0 28 26 42 69 39 25 -2 42 -12 63 -37z m838
-172 c28 -71 50 -130 48 -132 -1 -2 -36 -7 -75 -10 -85 -9 -80 -21 -58 128 17
113 24 151 29 146 2 -2 27 -62 56 -132z"/>
<path d="M7857 12623 c-4 -3 -7 -18 -7 -32 0 -20 7 -29 30 -38 56 -21 56 -35
-1 -398 -28 -181 -57 -344 -64 -361 -10 -24 -23 -35 -56 -45 -36 -12 -45 -19
-47 -41 -4 -31 1 -33 103 -43 33 -3 106 -15 162 -26 57 -11 107 -17 113 -14
23 14 10 53 -25 73 -19 12 -37 32 -41 46 -8 35 93 672 114 715 13 27 27 37 57
46 32 8 41 16 43 37 4 31 -3 34 -103 43 -38 3 -112 15 -164 26 -107 22 -105
21 -114 12z"/>
<path d="M8526 12094 c-132 -195 -255 -369 -273 -385 -21 -18 -45 -29 -64 -29
-22 0 -32 -6 -41 -25 -15 -33 -7 -39 65 -54 32 -7 81 -22 108 -33 40 -17 52
-18 64 -8 23 19 18 39 -15 70 -26 24 -28 31 -21 58 5 17 24 53 42 79 18 26 33
49 34 50 0 1 41 -10 90 -25 l90 -28 3 -73 c4 -91 -11 -118 -65 -123 -33 -3
-38 -7 -41 -30 -4 -29 -13 -25 136 -63 34 -8 98 -29 141 -45 58 -21 81 -26 90
-17 19 19 12 46 -21 76 -32 28 -33 33 -36 113 -2 46 1 250 6 453 5 229 5 375
-1 383 -30 39 -48 18 -291 -344z m90 -251 c-5 -6 -146 36 -146 43 0 3 33 58
73 121 l72 115 3 -137 c1 -76 1 -140 -2 -142z"/>
<path d="M4930 12214 c-82 -52 -421 -220 -485 -240 -43 -14 -54 -21 -49 -33 6
-15 100 -270 109 -299 3 -7 14 -12 26 -10 20 3 21 10 22 123 2 142 21 198 69
203 27 3 32 -6 190 -321 104 -211 161 -336 161 -356 0 -21 -9 -41 -27 -60 -24
-25 -26 -32 -17 -50 16 -29 29 -27 103 15 34 20 106 56 158 79 97 42 114 60
89 91 -9 11 -22 14 -41 10 -62 -12 -70 -2 -237 333 -87 174 -161 326 -165 337
-9 28 17 54 52 54 37 0 117 -48 182 -109 55 -52 77 -61 86 -38 4 12 -155 307
-166 306 -3 0 -30 -16 -60 -35z"/>
<path d="M9342 12228 c-14 -14 -16 -58 -4 -58 5 0 17 -15 27 -34 17 -30 17
-39 6 -77 -14 -45 -290 -564 -321 -602 -15 -18 -27 -22 -70 -20 -46 2 -52 0
-63 -24 -9 -21 -9 -27 1 -31 8 -2 61 -28 120 -58 58 -30 109 -54 114 -54 5 0
13 11 20 24 9 22 7 28 -18 49 -51 44 -42 74 86 320 63 119 117 217 120 217 3
0 31 -179 61 -397 54 -394 61 -428 96 -421 8 2 99 165 202 362 104 198 198
370 209 384 18 19 30 23 65 21 51 -3 67 5 67 34 -1 18 -21 32 -113 77 -62 30
-115 56 -119 58 -4 2 -13 -8 -19 -22 -11 -22 -8 -29 20 -61 17 -20 31 -45 31
-57 0 -15 -197 -425 -215 -446 -1 -1 -23 152 -49 340 -26 189 -51 356 -55 372
-5 22 -17 33 -55 47 -26 11 -64 30 -84 44 -42 29 -44 29 -60 13z"/>
<path d="M4082 11744 c-69 -19 -123 -55 -159 -106 -26 -38 -28 -48 -28 -137 0
-87 3 -101 29 -149 16 -29 51 -72 77 -97 56 -52 104 -68 273 -90 66 -9 139
-24 161 -34 74 -33 119 -124 90 -180 -21 -42 -49 -54 -109 -49 -64 6 -129 37
-195 93 -51 44 -88 51 -78 16 2 -9 39 -65 82 -125 66 -91 81 -107 99 -102 11
4 52 13 90 21 81 18 123 42 170 96 89 104 69 270 -47 396 -65 71 -122 93 -297
113 -132 16 -161 25 -197 62 -39 41 -56 83 -48 120 8 33 49 68 79 68 33 -1 97
-33 151 -79 51 -42 85 -53 85 -26 0 25 -140 205 -159 204 -9 0 -40 -7 -69 -15z"/>
<path d="M10416 11602 c-15 -18 -15 -21 6 -60 22 -40 22 -44 7 -70 -32 -57
-437 -548 -461 -559 -18 -8 -33 -8 -61 2 -32 11 -38 10 -52 -5 -8 -9 -15 -22
-15 -28 0 -7 34 -37 75 -67 41 -31 105 -82 142 -115 37 -33 73 -60 80 -60 8 0
18 11 24 24 9 19 8 29 -5 47 -21 30 -20 68 2 100 30 44 134 169 141 169 3 0
19 -14 35 -30 80 -81 213 -104 314 -54 96 48 180 169 189 274 9 99 -37 173
-167 268 -41 31 -107 84 -146 119 -40 35 -76 63 -81 63 -6 0 -17 -8 -27 -18z
m264 -272 c17 -32 11 -73 -18 -122 -62 -108 -183 -218 -239 -218 -13 0 -35 11
-49 25 -25 25 -25 27 -9 51 43 66 230 286 249 294 25 9 51 -3 66 -30z"/>
<path d="M3526 11327 c-24 -29 -65 -67 -90 -86 -51 -39 -56 -53 -25 -75 19
-13 25 -13 54 1 19 9 43 13 58 9 34 -8 397 -389 436 -457 40 -70 47 -118 25
-164 -18 -39 -70 -79 -116 -90 -33 -8 -99 20 -153 66 -80 67 -405 411 -411
434 -3 13 2 39 12 60 17 36 17 37 -5 58 l-22 22 -77 -80 c-42 -44 -106 -106
-142 -137 l-65 -57 22 -22 c20 -21 23 -21 60 -7 21 9 46 12 57 9 10 -4 114
-102 230 -218 250 -249 279 -268 411 -268 58 0 89 5 115 19 59 32 112 78 142
125 23 37 28 56 28 108 0 120 -45 198 -219 378 -248 256 -261 271 -261 302 0
16 7 38 15 51 12 16 13 27 6 41 -20 37 -39 32 -85 -22z"/>
<path d="M11055 11060 c-15 -17 -16 -24 -7 -46 27 -59 19 -74 -110 -200 -221
-215 -352 -340 -382 -362 -33 -25 -73 -28 -102 -7 -18 12 -24 12 -42 -1 -12
-8 -22 -21 -22 -29 0 -7 29 -40 64 -72 35 -32 92 -91 126 -130 64 -75 79 -84
100 -58 11 13 10 23 -1 57 -12 37 -11 44 6 72 28 45 490 484 522 497 21 8 36
6 66 -8 39 -17 40 -17 59 7 l20 24 -69 62 c-38 34 -97 96 -132 138 -35 42 -67
76 -71 76 -4 0 -15 -9 -25 -20z"/>
<path d="M6895 11024 c-488 -50 -872 -144 -1251 -309 -751 -327 -1366 -856
-1809 -1560 -91 -144 -248 -456 -314 -622 -189 -483 -274 -935 -274 -1463 0
-528 84 -978 270 -1450 321 -812 894 -1492 1636 -1942 840 -509 1829 -686
2807 -502 628 118 1218 392 1740 808 165 131 469 437 604 606 400 501 667
1073 791 1695 60 301 70 411 70 785 0 374 -10 483 -70 785 -265 1332 -1211
2443 -2490 2928 -282 106 -570 177 -907 223 -108 15 -702 28 -803 18z m802
-193 c995 -135 1865 -629 2486 -1411 552 -695 837 -1552 814 -2445 -6 -237
-22 -392 -61 -605 -268 -1447 -1370 -2619 -2801 -2979 -135 -34 -301 -65 -467
-87 -158 -21 -602 -30 -769 -15 -810 73 -1515 363 -2134 880 -116 96 -360 340
-456 456 -374 448 -634 952 -774 1498 -77 304 -105 517 -112 862 -5 283 2 422
33 635 178 1216 937 2273 2034 2829 440 224 874 348 1395 401 157 15 639 4
812 -19z"/>
<path d="M5650 10394 c0 -16 17 -58 38 -93 34 -59 222 -288 376 -460 47 -52
63 -77 54 -82 -13 -8 -20 -3 -301 239 -186 160 -241 202 -264 202 -60 0 13
-138 161 -304 64 -72 114 -132 111 -134 -2 -2 -34 21 -71 53 -84 71 -110 88
-124 80 -13 -8 -12 -82 3 -122 7 -18 80 -121 164 -228 83 -107 150 -195 147
-195 -3 0 -28 18 -57 39 -63 48 -162 101 -188 101 -62 0 -47 -132 25 -217 l28
-33 -40 0 c-39 0 -41 -2 -57 -45 -15 -38 -21 -44 -40 -39 -17 4 -31 -5 -64
-42 -33 -38 -41 -54 -41 -86 0 -38 -2 -41 -50 -61 -27 -11 -51 -26 -54 -33 -3
-7 7 -41 21 -74 34 -77 26 -96 -38 -94 -24 1 -62 5 -84 9 -39 7 -42 5 -67 -31
-15 -22 -39 -61 -53 -89 -14 -27 -37 -65 -50 -84 -34 -47 -40 -91 -21 -151
l16 -49 -34 -73 c-19 -40 -39 -91 -45 -114 -15 -57 -80 -126 -163 -176 -62
-36 -77 -41 -126 -40 -65 2 -93 -13 -111 -56 -14 -33 -55 -55 -102 -55 -19 0
-31 -6 -35 -19 -3 -10 -17 -32 -31 -48 -19 -23 -30 -29 -48 -24 -38 9 -90 -23
-156 -99 -35 -40 -98 -106 -140 -147 -61 -60 -79 -83 -85 -115 l-8 -40 -6 35
c-8 56 -39 47 -73 -20 -30 -60 -32 -118 -8 -210 9 -34 9 -60 0 -111 -16 -90
-4 -121 87 -220 41 -44 74 -85 74 -90 0 -5 -11 -4 -26 1 -14 6 -36 7 -49 4
-12 -3 -26 -1 -29 5 -13 20 -53 13 -59 -10 -13 -50 31 -109 177 -238 60 -53
110 -107 117 -125 7 -17 48 -71 90 -119 81 -92 119 -155 119 -198 0 -30 103
-206 156 -268 37 -42 38 -48 40 -120 1 -46 10 -100 22 -136 21 -61 17 -85 -14
-85 -20 0 -47 -47 -41 -73 3 -12 12 -41 21 -64 14 -37 14 -46 0 -78 -9 -23
-12 -49 -8 -70 3 -19 0 -56 -7 -84 -11 -42 -10 -56 4 -93 8 -23 18 -58 22 -76
4 -17 26 -56 49 -85 24 -28 46 -64 49 -78 4 -15 24 -42 46 -60 68 -59 85 -76
107 -106 12 -16 46 -42 75 -57 30 -16 82 -53 117 -83 35 -29 75 -56 88 -59 40
-10 115 1 164 25 50 23 659 542 868 739 l133 125 132 -22 c142 -23 250 -27
308 -11 45 13 100 49 114 75 10 19 21 20 265 20 369 0 476 23 825 173 160 69
137 73 208 -41 32 -52 37 -69 37 -120 0 -56 2 -62 38 -96 21 -20 51 -53 66
-73 18 -26 35 -38 52 -38 13 0 43 -12 66 -26 37 -24 47 -25 104 -19 55 6 67 4
90 -14 54 -42 174 -75 189 -51 3 6 32 27 63 48 55 37 58 38 75 20 9 -10 31
-18 50 -18 34 0 97 -33 97 -50 0 -6 21 -20 46 -32 52 -23 94 -14 94 20 0 11
19 31 48 50 26 17 62 46 80 66 34 38 34 38 162 57 99 14 161 38 195 75 22 24
25 36 25 103 1 101 37 248 73 290 14 18 37 66 51 109 13 42 36 97 50 122 14
25 31 61 37 80 7 19 45 71 85 116 40 44 76 94 80 110 4 16 17 44 31 61 39 53
63 115 63 166 0 26 6 60 14 75 7 15 20 59 29 97 8 39 22 99 31 135 9 36 18 77
21 93 5 23 10 27 40 27 19 0 35 3 35 7 0 4 -15 22 -32 40 -34 35 -43 64 -74
228 -9 47 -12 101 -9 133 8 62 -23 176 -59 220 -12 15 -32 43 -44 63 -12 19
-31 44 -43 55 -12 10 -32 36 -45 56 -13 21 -37 44 -53 52 -16 9 -32 27 -35 42
-4 14 -18 36 -32 49 -18 16 -28 41 -36 86 -6 35 -17 77 -25 92 -16 31 -56 51
-89 43 -13 -4 -27 0 -34 9 -7 8 -21 15 -31 15 -11 0 -19 6 -19 14 0 36 -60
160 -94 195 -30 30 -37 46 -39 81 -2 29 -9 47 -21 54 -10 6 -47 30 -83 54 -36
23 -71 42 -77 42 -6 0 -16 10 -21 22 -6 13 -23 27 -40 32 -16 5 -48 18 -71 28
-22 10 -48 18 -57 18 -27 0 -47 41 -47 96 0 34 -5 56 -15 64 -8 7 -15 27 -15
44 0 17 -9 67 -19 110 -17 71 -23 83 -63 117 -44 37 -45 38 -40 92 3 39 -1 63
-14 88 -13 26 -17 52 -15 107 3 70 2 74 -17 67 -16 -4 -26 2 -43 24 -12 17
-26 28 -31 25 -5 -3 -13 8 -19 25 -13 37 -45 59 -62 42 -6 -6 -19 -11 -29 -11
-9 0 -22 -9 -28 -21 -6 -11 -16 -19 -23 -16 -14 4 -37 84 -47 169 -5 38 -12
74 -17 80 -4 7 -6 25 -5 39 3 25 -39 79 -61 79 -5 0 -7 13 -4 30 5 22 2 33
-13 43 -12 8 -27 38 -35 68 -16 62 -72 189 -83 189 -48 0 -101 -37 -88 -59 13
-20 -14 -131 -42 -174 -37 -58 -48 -124 -30 -173 12 -33 11 -37 -7 -50 -16
-12 -19 -24 -17 -63 3 -33 -1 -51 -12 -60 -11 -9 -13 -19 -5 -37 12 -32 12
-81 0 -89 -5 -3 1 -24 15 -48 26 -46 32 -114 12 -150 -6 -12 -11 -36 -9 -53 1
-17 -5 -48 -13 -68 -8 -20 -13 -42 -10 -49 3 -8 -8 -47 -24 -88 -25 -66 -33
-78 -77 -106 -82 -54 -182 -39 -205 31 -14 44 -44 66 -90 66 -44 0 -108 29
-139 63 -13 14 -37 29 -53 33 -17 3 -46 17 -65 30 -20 13 -46 24 -59 24 -14 0
-30 10 -40 25 -11 17 -25 25 -46 25 -18 0 -43 11 -60 25 -16 14 -36 25 -44 25
-7 0 -20 12 -27 28 -11 22 -12 31 -1 52 8 14 14 43 14 65 0 21 8 59 17 83 13
35 14 48 5 63 -16 24 -15 29 3 29 30 0 64 24 75 54 7 17 23 58 36 91 13 33 24
70 24 82 0 30 -36 53 -82 53 l-38 0 35 45 c19 25 37 61 41 79 6 36 -2 76 -15
76 -5 0 -28 -25 -51 -56 -56 -72 -135 -142 -185 -165 -36 -16 -41 -16 -57 -2
-12 11 -27 13 -55 9 -66 -12 -90 -10 -133 13 -36 19 -46 20 -80 10 -34 -10
-43 -9 -67 7 -15 10 -40 24 -54 30 -14 7 -44 33 -65 58 -21 25 -42 46 -46 46
-4 0 -8 -13 -8 -29 0 -32 -11 -44 -55 -58 -21 -7 -31 -17 -33 -34 -5 -39 19
-62 66 -62 30 0 47 -6 62 -22 24 -26 24 -26 -49 -55 l-53 -20 -121 100 c-83
68 -133 102 -157 107 -25 4 -66 33 -140 99 -417 368 -468 408 -527 420 -31 6
-33 5 -33 -22z m2868 -381 c12 -32 27 -76 33 -98 6 -22 17 -47 25 -56 12 -13
13 -25 5 -60 -14 -60 -15 -59 19 -47 48 16 63 -2 44 -54 -18 -51 -18 -51 6
-45 16 4 21 -1 26 -28 3 -19 3 -38 0 -43 -3 -5 4 -32 14 -61 11 -28 20 -62 20
-75 0 -27 37 -56 71 -56 11 0 32 9 46 20 33 26 41 25 55 -5 6 -14 14 -25 18
-25 4 0 24 -16 45 -35 35 -34 37 -37 30 -85 -6 -42 -4 -52 14 -71 23 -25 27
-69 10 -100 -13 -25 6 -57 63 -109 34 -31 41 -45 55 -113 13 -62 14 -83 5 -98
-18 -28 -15 -36 13 -43 22 -6 25 -12 25 -50 0 -80 36 -136 88 -136 10 0 27 -7
38 -15 10 -8 36 -19 56 -25 21 -6 39 -18 43 -29 3 -10 25 -26 49 -35 24 -9 53
-28 66 -41 13 -14 31 -25 41 -25 19 0 33 -16 34 -40 1 -8 2 -24 3 -35 1 -11
22 -42 47 -68 26 -26 44 -51 41 -55 -3 -5 6 -30 19 -57 14 -27 25 -61 25 -77
0 -21 6 -31 23 -37 12 -5 26 -6 31 -3 5 3 14 -1 20 -9 22 -29 69 -59 91 -59
20 0 24 -7 34 -63 6 -35 11 -71 11 -80 0 -10 8 -17 19 -17 25 0 41 -21 48 -64
5 -29 10 -36 29 -36 13 0 31 -11 41 -26 10 -14 36 -44 57 -67 21 -23 45 -55
52 -72 7 -16 24 -41 38 -54 14 -14 26 -33 26 -43 0 -11 5 -29 12 -41 6 -12 12
-71 13 -132 2 -60 6 -123 10 -140 l8 -30 -31 27 c-17 14 -55 31 -83 37 -43 9
-64 23 -125 80 -41 38 -93 79 -117 90 -98 47 -208 49 -327 4 -36 -13 -114 -41
-175 -63 -60 -21 -202 -76 -315 -121 l-205 -83 -112 0 c-151 -1 -151 -1 -187
194 -36 199 -35 238 13 415 32 120 37 210 16 281 -28 91 -41 112 -139 218
-103 112 -189 184 -338 282 -254 166 -537 396 -954 773 -87 80 -237 212 -331
294 -95 82 -173 153 -173 157 0 4 22 17 50 28 35 15 51 28 55 45 8 32 -16 79
-55 107 -57 40 -24 31 46 -12 60 -38 76 -43 129 -44 33 0 73 -6 88 -12 47 -20
103 -25 126 -12 19 9 26 9 40 -4 24 -22 59 -20 106 4 38 19 41 19 52 3 7 -9
13 -20 13 -24 0 -6 53 -29 66 -29 1 0 4 10 6 22 4 26 48 54 71 45 15 -5 14
-12 -8 -62 -14 -30 -25 -64 -25 -73 0 -25 -20 -42 -50 -42 -49 0 -69 -37 -46
-82 12 -23 12 -30 -5 -56 -13 -22 -16 -41 -12 -67 4 -24 0 -46 -12 -69 -29
-54 3 -122 70 -150 21 -9 35 -23 39 -40 5 -22 9 -25 26 -16 34 18 53 13 48
-14 -5 -23 -2 -24 54 -28 47 -3 64 -10 87 -32 16 -16 35 -26 43 -24 7 3 28 -8
47 -25 42 -36 91 -57 151 -66 39 -5 47 -11 65 -45 31 -59 65 -79 140 -84 56
-4 72 0 117 23 75 39 84 49 114 129 27 69 34 98 54 221 5 33 13 77 18 97 10
39 3 99 -16 134 -21 40 -11 221 15 261 12 17 14 35 8 66 -13 74 -7 113 25 163
16 26 32 64 35 83 3 20 8 51 11 69 3 17 8 32 12 32 4 0 18 -26 30 -57z m-2757
-893 c7 -82 33 -132 108 -213 45 -47 57 -67 50 -78 -14 -22 1 -179 22 -220 10
-20 35 -50 55 -66 l37 -30 -14 -94 c-9 -62 -14 -169 -13 -314 1 -206 3 -225
27 -307 15 -47 45 -128 68 -180 30 -68 44 -113 49 -168 8 -78 28 -137 81 -242
18 -35 38 -90 46 -122 19 -84 68 -170 126 -222 l50 -45 -6 -120 c-8 -133 1
-169 52 -224 15 -16 38 -44 50 -62 l22 -32 -22 -13 c-13 -7 -64 -41 -116 -74
l-93 -61 -187 38 c-175 35 -989 139 -1095 139 -80 0 -138 -48 -138 -113 0 -13
-9 -32 -20 -42 -26 -24 -26 -81 0 -120 35 -53 28 -76 -49 -176 -48 -63 -71
-123 -71 -183 0 -29 -5 -57 -12 -64 -6 -6 -19 -42 -28 -79 l-17 -68 -12 67
c-9 56 -9 73 3 101 l14 34 -50 49 c-54 53 -168 235 -168 268 0 31 -53 136 -86
171 -61 65 -122 141 -128 160 -9 27 -31 51 -99 109 -49 42 -56 51 -42 59 12 6
15 16 10 35 l-7 27 29 -27 c35 -33 43 -35 43 -8 0 67 -83 212 -165 290 -60 57
-68 81 -55 158 9 51 9 80 0 122 -25 121 -25 112 4 104 37 -9 63 17 82 85 13
43 27 66 60 96 43 39 99 96 196 199 39 43 51 50 80 48 40 -3 94 28 110 63 6
14 23 28 37 31 54 11 91 35 116 74 25 40 28 41 64 35 44 -7 100 12 179 63 89
56 139 114 161 186 11 35 34 91 50 125 32 63 39 109 19 129 -6 6 -11 32 -12
57 -1 41 3 50 34 78 19 17 35 36 36 41 0 6 2 18 3 26 1 8 9 0 18 -18 17 -35
58 -62 93 -62 31 0 60 35 60 74 0 34 -22 60 -75 92 -14 8 -2 9 48 6 50 -3 73
0 92 12 33 22 42 75 21 129 -9 24 -16 45 -16 48 0 4 27 23 60 43 62 38 71 54
46 79 -23 22 14 77 51 77 38 0 48 9 67 53 12 31 20 38 38 35 21 -3 24 -10 29
-68z m4529 -2297 c0 -15 -9 -56 -20 -92 -10 -36 -26 -97 -34 -135 -9 -38 -22
-76 -28 -84 -8 -9 -12 -36 -10 -66 3 -44 -2 -59 -32 -106 -42 -66 -53 -87 -60
-120 -3 -14 -37 -56 -75 -95 -39 -38 -70 -75 -71 -81 0 -7 -19 -49 -41 -94
-23 -46 -50 -110 -60 -142 -10 -33 -33 -83 -53 -111 -44 -66 -79 -202 -77
-303 1 -57 -2 -73 -16 -87 -29 -26 -81 -44 -163 -56 -41 -7 -90 -14 -108 -17
-22 -3 -54 -24 -92 -59 -67 -61 -107 -85 -146 -85 -22 0 -25 -2 -14 -15 23
-27 -2 -15 -41 20 -25 22 -53 37 -79 41 -42 7 -47 13 -29 31 6 6 9 23 7 39 -2
23 -9 30 -29 32 -20 2 -38 -9 -75 -45 -27 -26 -66 -59 -86 -73 -21 -14 -38
-28 -38 -31 0 -17 -120 25 -137 48 -17 22 -91 34 -128 21 -27 -9 -37 -7 -82
21 -28 17 -58 29 -66 25 -10 -3 -17 2 -21 14 -4 11 -27 39 -51 63 -41 40 -45
48 -45 94 0 56 -22 110 -69 175 l-31 43 84 37 c150 66 239 127 446 300 85 71
186 139 391 263 295 178 338 212 543 425 186 192 262 222 584 231 50 1 52 0
52 -26z"/>
<path d="M9383 4716 c-41 -34 -125 -59 -172 -51 -21 3 -65 19 -97 36 -62 31
-115 37 -132 17 -34 -44 -20 -133 35 -217 31 -48 34 -56 22 -77 -11 -21 -8
-32 20 -91 18 -36 52 -88 74 -115 40 -45 45 -48 92 -48 61 0 116 26 133 62 13
27 14 28 43 12 48 -24 56 -15 61 75 3 54 10 87 20 98 22 25 38 88 38 153 0
142 -62 208 -137 146z m76 -63 c19 -68 14 -145 -14 -197 -14 -27 -29 -71 -33
-99 l-8 -52 -24 45 c-20 39 -24 43 -31 25 -4 -11 -8 -31 -8 -43 -1 -13 -10
-36 -21 -52 -11 -15 -17 -30 -13 -33 8 -9 -42 -27 -73 -27 -38 0 -100 64 -124
128 -11 30 -19 56 -18 57 2 1 11 6 21 12 16 8 13 16 -32 80 -50 71 -76 138
-65 167 8 21 12 21 86 -14 91 -42 141 -47 221 -21 35 12 73 31 82 41 27 30 43
24 54 -17z"/>
<path d="M2696 10461 c-11 -12 -15 -25 -10 -33 4 -7 110 -155 234 -328 303
-421 285 -392 286 -463 0 -54 11 -76 36 -77 4 0 22 21 39 48 18 26 51 69 73
95 32 39 38 52 29 65 -15 24 -41 27 -64 6 -29 -27 -65 -9 -117 58 -51 65 -53
54 30 160 l44 56 69 -29 c94 -39 103 -49 86 -94 -10 -28 -10 -39 -1 -50 24
-29 47 -16 88 48 23 34 72 100 110 147 39 46 67 90 65 97 -9 22 -49 26 -77 8
-18 -12 -38 -16 -64 -12 -20 3 -208 72 -417 154 -209 83 -389 153 -401 157
-14 4 -26 0 -38 -13z m371 -327 c65 -26 122 -51 127 -55 9 -8 -69 -119 -84
-119 -7 0 -144 174 -164 208 -10 17 -8 17 121 -34z"/>
<path d="M11345 10470 c-231 -50 -452 -258 -483 -455 -14 -83 1 -167 41 -234
38 -63 129 -150 200 -191 l50 -29 46 39 c81 66 181 130 207 130 14 0 35 -7 49
-16 18 -12 28 -13 44 -4 12 6 21 17 21 25 0 7 -25 44 -55 81 -31 37 -76 100
-101 141 -26 40 -52 73 -58 73 -7 0 -20 -8 -30 -18 -13 -16 -14 -24 -5 -51 18
-52 5 -73 -83 -137 -116 -85 -124 -88 -159 -74 -16 7 -38 28 -50 47 -62 100
52 268 288 426 109 72 200 108 288 114 62 5 73 2 99 -18 31 -25 56 -75 56
-113 0 -43 -39 -133 -87 -197 -39 -54 -43 -63 -30 -76 13 -13 29 -5 133 73 66
49 121 89 123 91 4 2 -28 86 -63 167 -51 118 -184 205 -324 211 -42 2 -95 0
-117 -5z"/>
<path d="M11994 9828 c-4 -7 -7 -31 -5 -53 2 -29 -3 -45 -16 -57 -21 -20 -595
-307 -637 -319 -32 -9 -62 2 -87 33 -14 18 -19 19 -40 8 -13 -7 -26 -14 -27
-16 -2 -1 59 -129 136 -283 76 -154 141 -278 144 -276 3 3 70 32 149 64 129
52 144 61 144 82 0 26 1 26 -95 9 -106 -19 -203 18 -240 90 -40 78 -34 85 135
172 148 76 150 76 162 55 7 -12 12 -37 13 -56 0 -29 -8 -43 -52 -82 -42 -40
-49 -51 -39 -63 10 -12 35 -3 169 65 86 43 163 79 170 79 8 0 12 9 10 23 -2
17 -9 21 -28 19 -14 -1 -49 -4 -78 -5 -48 -2 -56 1 -78 26 -13 15 -24 32 -24
37 0 13 274 150 299 150 44 0 89 -99 76 -166 -5 -30 -23 -55 -82 -112 -66 -66
-73 -76 -60 -89 13 -13 31 -6 156 59 77 40 141 76 141 79 0 3 -31 64 -69 135
-38 71 -97 191 -132 267 -53 118 -65 137 -85 137 -13 0 -26 -5 -30 -12z"/>
<path d="M2251 9747 c-27 -69 -132 -289 -189 -398 -57 -109 -64 -129 -53 -143
19 -23 44 -20 72 10 19 21 31 25 59 21 42 -5 615 -280 648 -309 17 -17 22 -33
22 -70 0 -43 3 -48 25 -54 14 -4 27 -5 29 -3 2 2 36 76 76 164 40 88 100 211
133 273 32 62 57 115 54 118 -10 10 -280 164 -288 164 -3 0 -12 -6 -18 -14 -9
-11 3 -28 58 -83 55 -55 72 -80 85 -122 17 -57 14 -85 -15 -142 -23 -45 -39
-52 -86 -35 -32 11 -261 122 -271 131 -2 2 4 17 12 33 21 40 71 57 123 43 57
-16 73 -14 73 10 0 16 -14 27 -62 47 -35 14 -109 50 -165 79 -56 29 -107 53
-113 53 -6 0 -13 -7 -17 -16 -4 -10 10 -29 41 -57 38 -34 49 -50 53 -82 3 -25
0 -47 -9 -58 -13 -18 -21 -15 -148 48 -140 68 -170 89 -170 112 0 7 11 36 26
64 41 82 122 107 244 75 30 -8 59 -11 63 -6 24 23 -5 44 -141 105 -140 63
-143 63 -151 42z"/>
<path d="M1870 8873 c-13 -53 -33 -128 -46 -167 -28 -82 -30 -102 -8 -110 28
-11 39 -6 57 24 15 24 25 30 52 30 34 0 294 -66 307 -79 7 -6 -49 -220 -61
-233 -4 -4 -72 10 -151 32 -158 44 -190 64 -190 120 0 23 -5 31 -25 36 -14 4
-28 4 -31 1 -3 -3 -14 -44 -25 -90 -10 -47 -32 -126 -49 -178 -23 -71 -27 -95
-17 -101 23 -15 48 -8 73 21 14 17 33 32 43 36 17 5 607 -152 684 -182 40 -16
57 -43 57 -88 0 -18 7 -26 26 -31 14 -4 29 -3 34 2 4 5 15 45 25 89 9 44 30
120 46 169 22 67 26 92 18 102 -19 23 -46 16 -69 -16 -17 -23 -29 -30 -56 -30
-36 0 -292 67 -307 80 -9 8 50 240 61 240 31 0 310 -88 324 -102 10 -10 18
-31 18 -48 0 -31 30 -56 54 -47 7 3 19 34 26 69 7 34 28 112 47 171 19 60 32
115 29 123 -9 24 -51 16 -74 -15 -39 -53 -19 -56 -636 115 -110 31 -145 54
-148 99 -2 39 -15 55 -43 55 -21 0 -25 -9 -45 -97z"/>
<path d="M12042 8919 c-141 -24 -273 -92 -365 -188 -81 -85 -102 -134 -102
-241 1 -71 5 -95 28 -145 16 -33 46 -79 69 -102 186 -190 639 -116 828 136 52
70 74 145 67 229 -11 117 -80 223 -178 272 -85 44 -224 59 -347 39z m381 -186
c39 -20 67 -70 67 -121 0 -36 -6 -49 -41 -86 -47 -52 -159 -110 -299 -154
-271 -86 -439 -82 -483 11 -52 108 14 191 215 272 221 89 454 123 541 78z"/>
<path d="M12629 8023 c-25 -62 -33 -73 -71 -87 -25 -11 -145 -24 -359 -41
-356 -28 -362 -27 -389 33 -12 28 -18 33 -45 30 -23 -2 -30 -7 -28 -23 1 -11
8 -69 14 -130 7 -60 16 -114 20 -119 14 -16 59 11 59 34 0 29 16 57 41 70 17
10 519 64 526 57 1 -2 -137 -123 -307 -270 -305 -263 -337 -297 -295 -313 8
-3 199 11 425 32 452 41 447 41 477 -21 14 -28 22 -35 46 -35 l30 0 -7 53 c-3
28 -9 89 -12 135 -4 45 -11 85 -16 88 -19 12 -58 -6 -58 -27 0 -40 -29 -78
-68 -88 -43 -12 -442 -54 -449 -47 -2 2 120 111 272 242 l277 239 -6 45 c-4
25 -9 73 -13 108 -5 57 -8 62 -30 62 -16 0 -27 -8 -34 -27z"/>
<path d="M1622 7797 c-2 -141 -27 -396 -47 -482 -7 -33 -13 -60 -12 -61 10 -8
331 -65 342 -60 30 11 14 34 -47 64 -69 34 -173 121 -183 152 -4 11 -3 29 0
40 8 27 28 26 423 -10 355 -32 366 -35 378 -95 4 -26 13 -37 30 -41 12 -3 27
-3 32 0 5 3 12 54 15 114 4 60 11 141 18 181 13 84 9 101 -26 101 -19 0 -28
-8 -39 -35 -25 -60 -32 -60 -423 -26 -194 17 -359 34 -368 37 -9 4 -15 19 -15
40 0 26 7 38 33 57 37 28 144 72 200 81 38 7 58 30 41 45 -5 5 -86 11 -180 15
l-171 6 -1 -123z"/>
<path d="M12529 6431 c-33 -33 -35 -50 -14 -91 30 -58 112 -77 172 -40 38 23
50 59 34 98 -16 39 -60 62 -116 62 -38 0 -52 -5 -76 -29z"/>
<path d="M2367 6323 c-4 -3 -7 -19 -7 -35 0 -46 -16 -65 -67 -82 -136 -43
-558 -147 -579 -142 -13 3 -31 20 -41 36 -17 30 -55 41 -68 20 -3 -5 7 -54 24
-107 16 -54 37 -135 47 -180 21 -101 24 -106 53 -95 19 7 24 17 25 50 1 24 9
50 18 58 13 13 240 83 270 84 14 0 28 -77 19 -103 -10 -26 -51 -62 -82 -72
-20 -7 -26 -39 -9 -50 5 -3 45 5 87 18 43 14 113 33 156 42 81 18 91 24 81 49
-4 11 -19 16 -50 16 -73 0 -96 18 -123 92 -10 26 -9 26 67 47 233 61 212 58
231 35 27 -34 45 -127 31 -168 -13 -39 -83 -108 -135 -133 -37 -17 -44 -34
-22 -51 16 -13 277 67 277 85 0 7 -20 84 -44 170 -25 87 -59 218 -76 291 -29
121 -34 132 -54 132 -13 0 -26 -3 -29 -7z"/>
<path d="M12185 6260 c-94 -60 -131 -199 -81 -305 84 -182 370 -226 497 -76
63 72 75 161 35 246 -26 57 -47 78 -73 73 -20 -4 -21 -22 -2 -85 18 -59 0
-117 -43 -139 -41 -21 -128 -13 -237 21 -101 32 -133 57 -129 99 3 30 4 31 68
39 101 13 110 16 122 42 35 77 -76 138 -157 85z"/>
<path d="M12066 5780 c-55 -17 -106 -85 -106 -143 0 -13 11 -45 24 -70 13 -26
21 -47 19 -47 -2 0 -20 7 -40 15 -23 10 -40 12 -46 6 -9 -9 8 -224 19 -243 10
-16 42 -8 57 15 l15 22 146 -49 c80 -27 152 -57 160 -65 16 -19 26 -81 13 -81
-5 0 -25 -14 -44 -30 -27 -24 -39 -29 -61 -23 -46 11 -542 240 -564 259 -16
15 -19 27 -15 62 4 34 1 45 -14 52 -30 17 -35 12 -64 -62 -15 -40 -50 -117
-77 -170 -26 -54 -48 -104 -48 -112 0 -8 9 -18 21 -21 15 -5 29 1 51 24 17 17
40 31 51 31 35 0 577 -250 588 -272 6 -11 9 -34 8 -51 -2 -18 0 -38 5 -45 9
-16 42 -16 49 1 3 6 21 51 40 99 20 47 52 118 72 158 20 40 34 78 31 85 -3 8
2 15 11 17 10 2 24 32 39 86 13 46 33 101 44 122 11 22 20 44 20 49 0 17 -42
23 -67 10 -21 -12 -39 -8 -156 30 -97 32 -141 51 -164 74 -49 46 -42 107 12
107 28 0 282 -86 311 -105 13 -9 24 -22 24 -30 0 -16 46 -43 55 -33 3 3 14 36
25 74 10 38 30 95 45 127 14 32 23 63 20 68 -10 16 -51 10 -70 -11 -10 -11
-26 -20 -35 -20 -9 0 -84 22 -166 50 -149 50 -184 56 -238 40z"/>
<path d="M1763 5559 c-25 -9 -24 -15 16 -95 11 -22 25 -62 32 -87 13 -55 26
-68 56 -56 18 7 21 13 16 42 -7 46 21 65 101 68 l58 3 34 -84 c19 -46 34 -89
34 -95 0 -12 -60 -64 -97 -84 -28 -14 -58 -1 -68 29 -7 23 -37 26 -54 6 -9
-10 -4 -29 20 -82 18 -38 49 -116 69 -174 34 -93 40 -105 61 -105 21 0 25 6
29 46 3 25 12 56 20 68 8 12 147 131 309 264 162 133 296 247 298 252 2 6 -3
19 -11 30 -13 18 -25 18 -397 7 -408 -13 -432 -11 -478 32 -20 18 -31 22 -48
15z m607 -103 c0 -7 -189 -156 -197 -156 -5 0 -20 31 -34 69 l-26 70 71 5 c39
4 91 8 116 9 25 2 51 4 58 5 6 1 12 0 12 -2z"/>
<path d="M2744 5190 c-6 -6 -9 -32 -6 -59 4 -42 1 -50 -26 -77 -39 -38 -505
-286 -538 -286 -14 0 -38 12 -54 27 -29 28 -55 29 -66 1 -3 -7 12 -40 33 -73
21 -32 49 -82 62 -111 25 -53 47 -65 69 -39 8 10 8 24 1 52 -9 32 -8 42 8 62
15 21 392 244 401 238 1 -1 -59 -161 -135 -355 -138 -357 -144 -380 -102 -388
8 -1 151 75 319 169 168 94 319 173 336 176 23 4 38 -1 61 -21 34 -29 55 -33
71 -13 9 10 5 23 -16 53 -14 21 -45 72 -67 113 -43 81 -54 90 -78 67 -12 -13
-13 -23 -5 -56 9 -35 8 -45 -8 -66 -16 -20 -354 -226 -361 -220 -2 1 53 146
121 321 l123 319 -37 57 c-20 31 -43 71 -50 88 -13 31 -37 40 -56 21z"/>
<path d="M11351 4933 c-23 -38 -55 -87 -72 -110 -52 -69 -23 -96 51 -47 28 19
45 24 62 18 13 -4 99 -57 192 -118 l170 -111 -340 -32 c-186 -17 -342 -32
-346 -32 -4 -1 -15 -16 -24 -33 -9 -18 -34 -56 -55 -84 -45 -58 -47 -69 -19
-84 17 -9 26 -7 51 14 34 29 71 33 112 12 59 -31 460 -321 474 -343 14 -20 14
-30 3 -65 -11 -37 -10 -43 6 -55 10 -7 21 -13 25 -13 4 0 25 30 47 68 22 37
54 84 71 106 36 46 39 61 10 77 -18 9 -25 7 -49 -16 -20 -20 -36 -26 -59 -23
-38 4 -408 251 -383 256 10 1 181 18 381 36 369 34 385 37 378 75 -1 8 -132
104 -292 213 -159 109 -299 209 -309 223 -17 22 -18 29 -7 67 12 37 11 43 -5
55 -10 7 -21 13 -25 13 -5 0 -26 -30 -48 -67z"/>
<path d="M2965 4392 c-126 -43 -232 -138 -292 -259 -33 -67 -37 -82 -37 -156
0 -149 63 -265 190 -349 38 -25 75 -52 82 -61 12 -14 25 -8 115 50 131 83 136
88 116 108 -13 14 -19 14 -50 1 -57 -24 -155 -39 -204 -32 -79 12 -145 86
-145 164 0 160 355 451 523 429 73 -10 127 -68 134 -144 5 -57 -24 -149 -63
-200 -26 -34 -26 -63 0 -63 7 0 57 38 109 85 l96 85 -50 99 c-61 121 -144 206
-234 240 -72 27 -216 29 -290 3z"/>
<path d="M10849 4186 c-87 -31 -176 -114 -221 -204 -19 -40 -23 -62 -23 -148
0 -96 2 -103 38 -177 53 -107 140 -193 254 -249 84 -42 89 -43 182 -43 81 0
104 4 144 24 71 35 149 111 188 183 32 59 34 69 34 158 0 89 -2 100 -36 170
-88 182 -266 301 -453 300 -39 -1 -87 -7 -107 -14z m78 -121 c126 -52 329
-239 392 -362 39 -79 19 -160 -51 -203 -84 -51 -212 7 -386 174 -91 87 -156
177 -172 237 -9 33 -8 47 8 83 38 86 110 110 209 71z"/>
<path d="M3557 4020 c-13 -18 -12 -25 3 -56 10 -19 16 -43 13 -53 -7 -27 -446
-461 -467 -461 -10 0 -33 7 -52 16 -27 13 -37 14 -49 4 -8 -7 -15 -16 -15 -21
0 -11 267 -279 279 -279 5 0 14 7 22 16 10 13 10 20 -4 44 -33 56 -29 61 204
296 122 122 229 224 239 227 20 5 90 -21 90 -34 0 -6 10 -23 21 -39 15 -19 20
-36 15 -53 -7 -30 -369 -483 -398 -498 -15 -8 -31 -8 -60 0 -41 13 -68 3 -68
-23 0 -6 53 -52 117 -101 64 -50 173 -137 242 -194 l124 -105 99 102 c54 56
98 108 98 115 0 32 -23 36 -56 11 -43 -33 -125 -64 -169 -64 -20 0 -50 6 -68
14 -43 19 -97 70 -97 93 0 10 41 69 91 132 l91 113 30 -30 c35 -34 40 -81 13
-131 -13 -25 -14 -36 -4 -47 18 -22 26 -18 70 44 24 31 69 88 101 126 33 37
57 73 55 80 -6 19 -35 18 -64 -4 -43 -31 -92 -35 -131 -10 l-33 21 67 82 c90
110 126 147 139 147 21 0 95 -60 115 -93 11 -18 20 -48 20 -68 0 -37 -25 -125
-43 -146 -5 -7 -7 -20 -3 -28 13 -34 43 -12 111 81 50 68 71 90 74 77 2 -10
14 -31 27 -46 28 -34 29 -38 8 -80 -40 -79 -294 -494 -313 -511 -16 -15 -29
-17 -65 -12 -39 6 -46 4 -56 -15 -14 -25 -19 -20 90 -81 41 -22 107 -63 147
-90 40 -26 77 -48 82 -48 6 0 14 11 17 26 5 18 1 31 -15 48 -11 12 -21 31 -21
42 0 27 126 239 142 239 7 0 19 -13 26 -28 12 -25 10 -49 -12 -185 -15 -86
-29 -169 -32 -183 -4 -22 0 -28 27 -39 18 -8 66 -36 107 -63 95 -62 98 -63
111 -38 9 16 6 27 -14 57 -28 41 -29 56 -15 210 18 196 18 195 44 188 38 -9
104 15 146 52 71 65 95 146 69 239 -15 55 -106 140 -205 192 -246 130 -600
407 -881 690 -84 84 -154 153 -157 153 -3 0 -11 -9 -19 -20z m1048 -892 c30
-13 55 -55 55 -90 0 -31 -43 -122 -80 -168 -43 -55 -79 -67 -135 -46 -25 10
-48 22 -51 27 -6 11 127 240 157 270 22 22 21 22 54 7z"/>
<path d="M10373 3729 c-193 -182 -560 -457 -712 -533 l-51 -26 70 -133 c53
-100 74 -133 91 -135 21 -4 21 -1 14 55 -18 144 3 254 51 261 26 4 27 2 176
-213 205 -297 218 -317 218 -335 0 -10 -12 -32 -26 -49 -21 -25 -23 -34 -14
-51 6 -11 16 -20 22 -20 6 0 49 29 97 64 47 35 116 82 154 106 68 43 78 58 52
80 -11 9 -22 9 -50 0 -29 -10 -40 -9 -58 3 -27 18 -377 520 -377 541 0 20 39
46 67 46 35 0 128 -38 180 -74 27 -18 54 -31 61 -29 24 9 11 39 -49 113 -84
105 -86 108 -52 121 45 17 75 -8 243 -202 256 -296 249 -285 213 -347 -14 -25
-15 -32 -4 -46 7 -9 18 -16 23 -16 5 0 41 31 81 68 40 37 102 92 140 121 69
55 78 70 52 91 -12 10 -21 10 -41 1 -49 -22 -69 -14 -130 52 -122 131 -352
403 -358 425 -5 15 -1 34 14 59 21 36 21 36 1 56 -19 20 -20 20 -98 -54z"/>
<path d="M9377 3058 c-16 -12 -14 -37 33 -373 59 -424 60 -451 24 -494 -43
-52 -9 -90 45 -52 17 12 64 37 106 56 41 19 75 38 75 42 -1 24 -23 38 -62 38
-50 0 -62 17 -74 102 l-6 52 90 45 90 45 46 -49 c52 -56 56 -77 21 -110 -29
-27 -30 -30 -12 -54 13 -17 21 -14 131 47 64 36 142 75 172 87 35 15 54 28 54
39 0 27 -20 40 -51 34 -16 -3 -40 -2 -55 1 -16 4 -136 115 -307 281 -154 151
-285 275 -292 275 -6 0 -19 -6 -28 -12z m263 -488 c0 -8 -128 -75 -134 -70 -2
3 -12 48 -21 100 -8 52 -18 109 -21 125 -5 27 3 21 85 -60 50 -49 91 -92 91
-95z"/>
<path d="M5056 2906 c-57 -21 -105 -65 -140 -126 -26 -46 -31 -66 -31 -121 0
-62 4 -74 73 -207 75 -147 83 -177 58 -236 -30 -73 -106 -88 -161 -33 -48 48
-69 128 -60 224 7 73 6 75 -15 71 -17 -2 -31 -25 -66 -107 -25 -58 -43 -110
-42 -116 6 -21 140 -137 181 -156 59 -26 167 -26 223 2 54 25 100 77 132 147
40 89 31 142 -56 315 -40 78 -72 152 -72 165 0 55 50 112 97 112 81 0 108 -46
101 -171 -5 -74 -3 -89 11 -94 21 -8 30 7 70 115 l35 92 -50 45 c-27 24 -69
53 -93 65 -57 26 -144 33 -195 14z"/>
<path d="M8990 2855 c-41 -19 -115 -48 -165 -65 -112 -38 -119 -42 -110 -69 5
-17 14 -21 49 -21 23 0 50 -6 60 -13 18 -13 236 -564 236 -598 0 -12 -13 -34
-30 -49 -31 -29 -36 -45 -21 -68 6 -11 30 -4 112 31 57 24 136 54 174 67 83
27 89 31 80 59 -5 17 -14 21 -50 21 -31 0 -50 6 -62 19 -20 22 -233 565 -233
594 0 11 14 32 31 48 24 23 30 34 25 54 -4 14 -10 25 -14 24 -4 0 -41 -16 -82
-34z"/>
<path d="M8500 2703 c-96 -16 -208 -75 -262 -137 -31 -35 -74 -128 -88 -185
-16 -70 -8 -199 18 -272 65 -183 204 -289 383 -289 96 0 164 22 250 79 34 23
68 41 75 41 8 0 14 5 14 11 0 30 -42 255 -49 262 -4 4 -15 5 -23 2 -10 -4 -17
-26 -21 -69 -15 -165 -85 -256 -197 -256 -77 0 -135 50 -190 165 -68 141 -103
372 -72 466 22 63 86 109 153 109 67 0 157 -65 206 -147 25 -42 45 -54 59 -32
3 6 -11 67 -32 135 l-38 124 -80 -1 c-45 -1 -92 -4 -106 -6z"/>
<path d="M5670 2361 c-117 -171 -227 -324 -244 -340 -19 -19 -45 -32 -66 -34
-63 -7 -65 -66 -3 -67 12 0 59 -12 103 -26 45 -14 88 -23 96 -20 19 7 18 56 0
56 -8 0 -22 7 -31 16 -21 21 -14 53 26 115 l29 46 98 -26 97 -26 3 -62 c4 -82
-8 -103 -57 -103 -32 0 -40 -4 -45 -22 -3 -13 -2 -26 2 -30 4 -4 49 -16 99
-27 51 -11 129 -32 173 -46 103 -32 110 -32 110 3 0 19 -8 32 -29 44 -20 11
-33 29 -40 55 -5 21 -19 206 -30 412 -21 384 -22 390 -62 391 -9 0 -100 -122
-229 -309z m99 -168 l1 -71 -72 20 c-40 11 -74 21 -76 23 -2 1 28 51 65 110
l68 108 6 -59 c4 -33 7 -91 8 -131z"/>
<path d="M6415 2536 c-59 -22 -130 -101 -149 -166 -37 -125 -13 -186 134 -339
110 -114 127 -148 109 -214 -6 -21 -19 -47 -30 -58 -27 -27 -87 -25 -130 4
-44 29 -95 129 -104 202 -7 50 -10 56 -29 53 -19 -3 -22 -14 -37 -126 l-15
-123 95 -47 c89 -43 101 -47 171 -46 57 0 85 5 116 22 120 62 179 233 122 350
-12 25 -66 92 -120 149 -55 58 -103 116 -109 129 -28 76 12 154 81 154 69 0
99 -39 124 -160 10 -53 16 -65 32 -65 20 0 22 12 37 167 l5 57 -66 32 c-81 38
-175 48 -237 25z"/>
<path d="M7660 2537 c-120 -28 -196 -89 -249 -199 -55 -116 -61 -291 -14 -412
41 -104 126 -201 208 -236 95 -41 238 -34 337 16 161 82 235 296 178 519 -59
232 -249 361 -460 312z m165 -99 c67 -73 107 -233 109 -433 0 -123 -2 -146
-21 -187 -28 -62 -70 -88 -142 -88 -48 0 -57 3 -91 38 -73 74 -115 252 -108
467 4 138 13 169 60 211 33 30 46 34 107 30 47 -3 58 -7 86 -38z"/>
<path d="M6990 2489 c-25 -11 -56 -30 -68 -42 -42 -38 -75 -117 -79 -187 -4
-57 -1 -72 24 -120 19 -35 51 -73 93 -108 162 -135 179 -152 190 -190 12 -46
-1 -101 -31 -128 -30 -27 -96 -25 -134 4 -44 33 -92 109 -108 172 -11 43 -19
56 -36 58 -21 3 -21 1 -21 -127 0 -126 1 -130 23 -136 12 -4 50 -18 84 -31 70
-27 165 -32 226 -10 93 34 153 118 164 230 11 118 -29 182 -194 313 -93 73
-113 102 -113 161 0 102 111 134 173 50 11 -15 30 -58 42 -95 17 -52 27 -68
41 -68 17 0 19 9 22 85 5 139 3 143 -76 168 -84 28 -162 28 -222 1z"/>
</g>
</svg>
