<?xml version="1.0" standalone="no"?>
<!DOCTYPE svg PUBLIC "-//W3C//DTD SVG 20010904//EN"
 "http://www.w3.org/TR/2001/REC-SVG-20010904/DTD/svg10.dtd">
<svg version="1.0" xmlns="http://www.w3.org/2000/svg"
 width="867.000000pt" height="855.000000pt" viewBox="0 0 867.000000 855.000000"
 preserveAspectRatio="xMidYMid meet">
<metadata>
Created by potrace 1.11, written by Peter Selinger 2001-2013
</metadata>
<g transform="translate(0.000000,855.000000) scale(0.100000,-0.100000)"
fill="#000000" stroke="none">
<path d="M4075 8284 c-488 -50 -872 -144 -1251 -309 -751 -327 -1366 -856
-1809 -1560 -91 -144 -248 -456 -314 -622 -189 -483 -274 -935 -274 -1463 0
-528 84 -978 270 -1450 321 -812 894 -1492 1636 -1942 840 -509 1829 -686
2807 -502 628 118 1218 392 1740 808 165 131 469 437 604 606 400 501 667
1073 791 1695 60 301 70 411 70 785 0 374 -10 483 -70 785 -265 1332 -1211
2443 -2490 2928 -282 106 -570 177 -907 223 -108 15 -702 28 -803 18z m802
-193 c995 -135 1865 -629 2486 -1411 552 -695 837 -1552 814 -2445 -6 -237
-22 -392 -61 -605 -268 -1447 -1370 -2619 -2801 -2979 -135 -34 -301 -65 -467
-87 -158 -21 -602 -30 -769 -15 -810 73 -1515 363 -2134 880 -116 96 -360 340
-456 456 -374 448 -634 952 -774 1498 -77 304 -105 517 -112 862 -5 283 2 422
33 635 178 1216 937 2273 2034 2829 440 224 874 348 1395 401 157 15 639 4
812 -19z"/>
<path d="M2830 7654 c0 -16 17 -58 38 -93 34 -59 222 -288 376 -460 47 -52 63
-77 54 -82 -13 -8 -20 -3 -301 239 -186 160 -241 202 -264 202 -60 0 13 -138
161 -304 64 -72 114 -132 111 -134 -2 -2 -34 21 -71 53 -84 71 -110 88 -124
80 -13 -8 -12 -82 3 -122 7 -18 80 -121 164 -228 83 -107 150 -195 147 -195
-3 0 -28 18 -57 39 -63 48 -162 101 -188 101 -62 0 -47 -132 25 -217 l28 -33
-40 0 c-39 0 -41 -2 -57 -45 -15 -38 -21 -44 -40 -39 -17 4 -31 -5 -64 -42
-33 -38 -41 -54 -41 -86 0 -38 -2 -41 -50 -61 -27 -11 -51 -26 -54 -33 -3 -7
7 -41 21 -74 34 -77 26 -96 -38 -94 -24 1 -62 5 -84 9 -39 7 -42 5 -67 -31
-15 -22 -39 -61 -53 -89 -14 -27 -37 -65 -50 -84 -34 -47 -40 -91 -21 -151
l16 -49 -34 -73 c-19 -40 -39 -91 -45 -114 -15 -57 -80 -126 -163 -176 -62
-36 -77 -41 -126 -40 -65 2 -93 -13 -111 -56 -14 -33 -55 -55 -102 -55 -19 0
-31 -6 -35 -19 -3 -10 -17 -32 -31 -48 -19 -23 -30 -29 -48 -24 -38 9 -90 -23
-156 -99 -35 -40 -98 -106 -140 -147 -61 -60 -79 -83 -85 -115 l-8 -40 -6 35
c-8 56 -39 47 -73 -20 -30 -60 -32 -118 -8 -210 9 -34 9 -60 0 -111 -16 -90
-4 -121 87 -220 41 -44 74 -85 74 -90 0 -5 -11 -4 -26 1 -14 6 -36 7 -49 4
-12 -3 -26 -1 -29 5 -13 20 -53 13 -59 -10 -13 -50 31 -109 177 -238 60 -53
110 -107 117 -125 7 -17 48 -71 90 -119 81 -92 119 -155 119 -198 0 -30 103
-206 156 -268 37 -42 38 -48 40 -120 1 -46 10 -100 22 -136 21 -61 17 -85 -14
-85 -20 0 -47 -47 -41 -73 3 -12 12 -41 21 -64 14 -37 14 -46 0 -78 -9 -23
-12 -49 -8 -70 3 -19 0 -56 -7 -84 -11 -42 -10 -56 4 -93 8 -23 18 -58 22 -76
4 -17 26 -56 49 -85 24 -28 46 -64 49 -78 4 -15 24 -42 46 -60 68 -59 85 -76
107 -106 12 -16 46 -42 75 -57 30 -16 82 -53 117 -83 35 -29 75 -56 88 -59 40
-10 115 1 164 25 50 23 659 542 868 739 l133 125 132 -22 c142 -23 250 -27
308 -11 45 13 100 49 114 75 10 19 21 20 265 20 369 0 476 23 825 173 160 69
137 73 208 -41 32 -52 37 -69 37 -120 0 -56 2 -62 38 -96 21 -20 51 -53 66
-74 18 -25 35 -37 52 -37 13 0 43 -12 66 -26 37 -24 47 -25 104 -19 55 6 67 4
90 -14 54 -42 174 -75 189 -51 3 6 32 27 63 48 55 37 58 38 75 20 9 -10 31
-18 50 -18 34 0 97 -33 97 -50 0 -6 21 -20 46 -32 52 -23 94 -14 94 20 0 11
19 31 48 50 26 17 62 46 80 66 34 38 34 38 162 57 99 14 161 38 195 75 22 24
25 36 25 103 1 101 37 248 73 290 14 18 37 66 51 109 13 42 36 97 50 122 14
25 31 61 37 80 7 19 45 71 85 116 40 44 76 94 80 110 4 16 17 44 31 61 39 53
63 115 63 166 0 26 6 60 14 75 7 15 20 59 29 97 8 39 22 99 31 135 9 36 18 77
21 93 5 23 10 27 40 27 19 0 35 3 35 7 0 4 -15 22 -32 40 -34 35 -43 64 -74
228 -9 47 -12 101 -9 133 8 62 -23 176 -59 220 -12 15 -32 43 -44 63 -12 19
-31 44 -43 55 -12 10 -32 36 -45 56 -13 21 -37 44 -53 52 -16 9 -32 27 -35 42
-4 14 -18 36 -32 49 -18 16 -28 41 -36 86 -6 35 -17 77 -25 92 -16 31 -56 51
-89 43 -13 -4 -27 0 -34 9 -7 8 -21 15 -31 15 -11 0 -19 6 -19 14 0 36 -60
160 -94 195 -30 30 -37 46 -39 81 -2 29 -9 47 -21 54 -10 6 -47 30 -83 54 -36
23 -71 42 -77 42 -6 0 -16 10 -21 22 -6 13 -23 27 -40 32 -16 5 -48 18 -71 28
-22 10 -48 18 -57 18 -27 0 -47 41 -47 96 0 34 -5 56 -15 64 -8 7 -15 27 -15
44 0 17 -9 67 -19 110 -17 71 -23 83 -63 117 -44 37 -45 38 -40 92 3 39 -1 63
-14 88 -13 26 -17 52 -15 107 3 70 2 74 -17 67 -16 -4 -26 2 -43 24 -12 17
-26 28 -31 25 -5 -3 -13 8 -19 25 -13 37 -45 59 -62 42 -6 -6 -19 -11 -29 -11
-9 0 -22 -9 -28 -21 -6 -11 -16 -19 -23 -16 -14 4 -37 84 -47 169 -5 38 -12
74 -17 80 -4 7 -6 25 -5 39 3 25 -39 79 -61 79 -5 0 -7 13 -4 30 5 22 2 33
-13 43 -12 8 -27 38 -35 68 -16 62 -72 189 -83 189 -48 0 -101 -37 -88 -59 13
-20 -14 -131 -42 -174 -37 -58 -48 -124 -30 -173 12 -33 11 -37 -7 -50 -16
-12 -19 -24 -17 -63 3 -33 -1 -51 -12 -60 -11 -9 -13 -19 -5 -37 12 -32 12
-81 0 -89 -5 -3 1 -24 15 -48 26 -46 32 -114 12 -150 -6 -12 -11 -36 -9 -53 1
-17 -5 -48 -13 -68 -8 -20 -13 -42 -10 -49 3 -8 -8 -47 -24 -88 -25 -66 -33
-78 -77 -106 -82 -54 -182 -39 -205 31 -14 44 -44 66 -90 66 -44 0 -108 29
-139 63 -13 14 -37 29 -53 33 -17 3 -46 17 -65 30 -20 13 -46 24 -59 24 -14 0
-30 10 -40 25 -11 17 -25 25 -46 25 -18 0 -43 11 -60 25 -16 14 -36 25 -44 25
-7 0 -20 12 -27 28 -11 22 -12 31 -1 52 8 14 14 43 14 65 0 21 8 59 17 83 13
35 14 48 5 63 -16 24 -15 29 3 29 30 0 64 24 75 54 7 17 23 58 36 91 13 33 24
70 24 82 0 30 -36 53 -82 53 l-38 0 35 45 c19 25 37 61 41 79 6 36 -2 76 -15
76 -5 0 -28 -25 -51 -56 -56 -72 -135 -142 -185 -165 -36 -16 -41 -16 -57 -2
-12 11 -27 13 -55 9 -66 -12 -90 -10 -133 13 -36 19 -46 20 -80 10 -34 -10
-43 -9 -67 7 -15 10 -40 24 -54 30 -14 7 -44 33 -65 58 -21 25 -42 46 -46 46
-4 0 -8 -13 -8 -29 0 -32 -11 -44 -55 -58 -21 -7 -31 -17 -33 -34 -5 -39 19
-62 66 -62 30 0 47 -6 62 -22 24 -26 24 -26 -49 -55 l-53 -20 -121 100 c-83
68 -133 102 -157 107 -25 4 -66 33 -140 99 -417 368 -468 408 -527 420 -31 6
-33 5 -33 -22z m2868 -381 c12 -32 27 -76 33 -98 6 -22 17 -47 25 -56 12 -13
13 -25 5 -60 -14 -60 -15 -59 19 -47 48 16 63 -2 44 -54 -18 -51 -18 -51 6
-45 16 4 21 -1 26 -28 3 -19 3 -38 0 -43 -3 -5 4 -32 14 -61 11 -28 20 -62 20
-75 0 -27 37 -56 71 -56 11 0 32 9 46 20 33 26 41 25 55 -5 6 -14 14 -25 18
-25 4 0 24 -16 45 -35 35 -34 37 -37 30 -85 -6 -42 -4 -52 14 -71 23 -25 27
-69 10 -100 -13 -25 6 -57 63 -109 34 -31 41 -45 55 -113 13 -62 14 -83 5 -98
-18 -28 -15 -36 13 -43 22 -6 25 -12 25 -50 0 -80 36 -136 88 -136 10 0 27 -7
38 -15 10 -8 36 -19 56 -25 21 -6 39 -18 43 -29 3 -10 25 -26 49 -35 24 -9 53
-28 66 -41 13 -14 31 -25 41 -25 19 0 33 -16 34 -40 1 -8 2 -24 3 -35 1 -11
22 -42 47 -68 26 -26 44 -51 41 -55 -3 -5 6 -30 19 -57 14 -27 25 -61 25 -77
0 -21 6 -31 23 -37 12 -5 26 -6 31 -3 5 3 14 -1 20 -9 22 -29 69 -59 91 -59
20 0 24 -7 34 -63 6 -35 11 -71 11 -80 0 -10 8 -17 19 -17 25 0 41 -21 48 -64
5 -29 10 -36 29 -36 13 0 31 -11 41 -26 10 -14 36 -44 57 -67 21 -23 45 -55
52 -72 7 -16 24 -41 38 -54 14 -14 26 -33 26 -43 0 -11 5 -29 12 -41 6 -12 12
-71 13 -132 2 -60 6 -123 10 -140 l8 -30 -31 27 c-17 14 -55 31 -83 37 -43 9
-64 23 -125 80 -41 38 -93 79 -117 90 -98 47 -208 49 -327 4 -36 -13 -114 -41
-175 -63 -60 -21 -202 -76 -315 -121 l-205 -83 -112 0 c-151 -1 -151 -1 -187
194 -36 199 -35 238 13 415 32 120 37 210 16 281 -28 91 -41 112 -139 218
-103 112 -189 184 -338 282 -254 166 -537 396 -954 773 -87 80 -237 212 -331
294 -95 82 -173 153 -173 157 0 4 22 17 50 28 35 15 51 28 55 45 8 32 -16 79
-55 107 -57 40 -24 31 46 -12 60 -38 76 -43 129 -44 33 0 73 -6 88 -12 47 -20
103 -25 126 -12 19 9 26 9 40 -4 24 -22 59 -20 106 4 38 19 41 19 52 3 7 -9
13 -20 13 -24 0 -6 53 -29 66 -29 1 0 4 10 6 22 4 26 48 54 71 45 15 -5 14
-12 -8 -62 -14 -30 -25 -64 -25 -73 0 -25 -20 -42 -50 -42 -49 0 -69 -37 -46
-82 12 -23 12 -30 -5 -56 -13 -22 -16 -41 -12 -67 4 -24 0 -46 -12 -69 -29
-54 3 -122 70 -150 21 -9 35 -23 39 -40 5 -22 9 -25 26 -16 34 18 53 13 48
-14 -5 -23 -2 -24 54 -28 47 -3 64 -10 87 -32 16 -16 35 -26 43 -24 7 3 28 -8
47 -25 42 -36 91 -57 151 -66 39 -5 47 -11 65 -45 31 -59 65 -79 140 -84 56
-4 72 0 117 23 75 39 84 49 114 129 27 69 34 98 54 221 5 33 13 77 18 97 10
39 3 99 -16 134 -21 40 -11 221 15 261 12 17 14 35 8 66 -13 74 -7 113 25 163
16 26 32 64 35 83 3 20 8 51 11 69 3 17 8 32 12 32 4 0 18 -26 30 -57z m-2757
-893 c7 -82 33 -132 108 -213 45 -47 57 -67 50 -78 -14 -22 1 -179 22 -220 10
-20 35 -50 55 -66 l37 -30 -14 -94 c-9 -62 -14 -169 -13 -314 1 -206 3 -225
27 -307 15 -47 45 -128 68 -180 30 -68 44 -113 49 -168 8 -78 28 -137 81 -242
18 -35 38 -90 46 -122 19 -84 68 -170 126 -222 l50 -45 -6 -120 c-8 -133 1
-169 52 -224 15 -16 38 -44 50 -62 l22 -32 -22 -13 c-13 -7 -64 -41 -116 -74
l-93 -61 -187 38 c-175 35 -989 139 -1095 139 -80 0 -138 -48 -138 -113 0 -13
-9 -32 -20 -42 -26 -24 -26 -81 0 -120 35 -53 28 -76 -49 -176 -48 -63 -71
-123 -71 -183 0 -29 -5 -57 -12 -64 -6 -6 -19 -42 -28 -79 l-17 -68 -12 67
c-9 56 -9 73 3 101 l14 34 -50 49 c-54 53 -168 235 -168 268 0 31 -53 136 -86
171 -61 65 -122 141 -128 160 -9 27 -31 51 -99 109 -49 42 -56 51 -42 59 12 6
15 16 10 35 l-7 27 29 -27 c35 -33 43 -35 43 -8 0 67 -83 212 -165 290 -60 57
-68 81 -55 158 9 51 9 80 0 122 -25 121 -25 112 4 104 37 -9 63 17 82 85 13
43 27 66 60 96 43 39 99 96 196 199 39 43 51 50 80 48 40 -3 94 28 110 63 6
14 23 28 37 31 54 11 91 35 116 74 25 40 28 41 64 35 44 -7 100 12 179 63 89
56 139 114 161 186 11 35 34 91 50 125 32 63 39 109 19 129 -6 6 -11 32 -12
57 -1 41 3 50 34 78 19 17 35 36 36 41 0 6 2 18 3 26 1 8 9 0 18 -18 17 -35
58 -62 93 -62 31 0 60 35 60 74 0 34 -22 60 -75 92 -14 8 -2 9 48 6 50 -3 73
0 92 12 33 22 42 75 21 129 -9 24 -16 45 -16 48 0 4 27 23 60 43 62 38 71 54
46 79 -23 22 14 77 51 77 38 0 48 9 67 53 12 31 20 38 38 35 21 -3 24 -10 29
-68z m4529 -2297 c0 -15 -9 -56 -20 -92 -10 -36 -26 -97 -34 -135 -9 -38 -22
-76 -28 -84 -8 -9 -12 -36 -10 -66 3 -44 -2 -59 -32 -106 -42 -66 -53 -87 -60
-120 -3 -14 -37 -56 -75 -95 -39 -38 -70 -75 -71 -81 0 -7 -19 -49 -41 -94
-23 -46 -50 -110 -60 -142 -10 -33 -33 -83 -53 -111 -44 -66 -79 -202 -77
-303 1 -57 -2 -73 -16 -87 -29 -26 -81 -44 -163 -56 -41 -7 -90 -14 -108 -17
-22 -3 -54 -24 -92 -59 -67 -61 -107 -85 -146 -85 -22 0 -25 -2 -14 -15 23
-27 -2 -15 -41 20 -25 22 -53 37 -79 41 -42 7 -47 13 -29 31 6 6 9 23 7 39 -2
23 -9 30 -29 32 -20 2 -38 -9 -75 -45 -27 -26 -66 -59 -86 -73 -21 -14 -38
-28 -38 -31 0 -17 -120 25 -137 48 -17 22 -91 34 -128 21 -27 -9 -37 -7 -82
21 -28 17 -58 29 -66 25 -10 -3 -17 2 -21 14 -4 11 -27 39 -51 63 -41 40 -45
48 -45 94 0 56 -22 110 -69 175 l-31 43 84 37 c150 66 239 127 446 300 85 71
186 139 391 263 295 178 338 212 543 425 186 192 262 222 584 231 50 1 52 0
52 -26z"/>
<path d="M6563 1976 c-41 -34 -125 -59 -172 -51 -21 3 -65 19 -97 36 -62 31
-115 37 -132 17 -34 -44 -20 -133 35 -217 31 -48 34 -56 22 -77 -11 -21 -8
-32 20 -91 18 -36 52 -88 74 -115 40 -45 45 -48 92 -48 61 0 116 26 133 62 13
27 14 28 43 12 48 -24 56 -15 61 75 3 54 10 87 20 98 22 25 38 88 38 153 0
142 -62 208 -137 146z m76 -63 c19 -68 14 -145 -14 -197 -14 -27 -29 -71 -33
-99 l-8 -52 -24 45 c-20 39 -24 43 -31 25 -4 -11 -8 -31 -8 -43 -1 -13 -10
-36 -21 -52 -11 -15 -17 -30 -13 -33 8 -9 -42 -27 -73 -27 -38 0 -100 64 -124
128 -11 30 -19 56 -18 57 2 1 11 6 21 12 16 8 13 16 -32 80 -50 71 -76 138
-65 167 8 21 12 21 86 -14 91 -42 141 -47 221 -21 35 12 73 31 82 41 27 30 43
24 54 -17z"/>
</g>
</svg>
