<?xml version="1.0" standalone="no"?>
<!DOCTYPE svg PUBLIC "-//W3C//DTD SVG 20010904//EN"
 "http://www.w3.org/TR/2001/REC-SVG-20010904/DTD/svg10.dtd">
<svg version="1.0" xmlns="http://www.w3.org/2000/svg"
 width="871.000000pt" height="830.000000pt" viewBox="0 0 871.000000 830.000000"
 preserveAspectRatio="xMidYMid meet">
<metadata>
Created by potrace 1.11, written by Peter Selinger 2001-2013
</metadata>
<g transform="translate(0.000000,830.000000) scale(0.100000,-0.100000)"
fill="#000000" stroke="none">
<path d="M4025 8154 c-488 -50 -872 -144 -1251 -309 -751 -327 -1366 -856
-1809 -1560 -91 -144 -248 -456 -314 -622 -189 -483 -274 -935 -274 -1463 0
-528 84 -978 270 -1450 321 -812 894 -1492 1636 -1942 840 -509 1829 -686
2807 -502 628 118 1218 392 1740 808 165 131 469 437 604 606 400 501 667
1073 791 1695 60 301 70 411 70 785 0 374 -10 483 -70 785 -265 1332 -1211
2443 -2490 2928 -282 106 -570 177 -907 223 -108 15 -702 28 -803 18z m802
-193 c995 -135 1865 -629 2486 -1411 552 -695 837 -1552 814 -2445 -6 -237
-22 -392 -61 -605 -268 -1447 -1370 -2619 -2801 -2979 -135 -34 -301 -65 -467
-87 -158 -21 -602 -30 -769 -15 -810 73 -1515 363 -2134 880 -116 96 -360 340
-456 456 -374 448 -634 952 -774 1498 -77 304 -105 517 -112 862 -5 283 2 422
33 635 178 1216 937 2273 2034 2829 440 224 874 348 1395 401 157 15 639 4
812 -19z"/>
<path d="M2780 7524 c0 -16 17 -58 38 -93 34 -59 222 -288 376 -460 47 -52 63
-77 54 -82 -13 -8 -20 -3 -301 239 -186 160 -241 202 -264 202 -60 0 13 -138
161 -304 64 -72 114 -132 111 -134 -2 -2 -34 21 -71 53 -84 71 -110 88 -124
80 -13 -8 -12 -82 3 -122 7 -18 80 -121 164 -228 83 -107 150 -195 147 -195
-3 0 -28 18 -57 39 -63 48 -162 101 -188 101 -61 0 -47 -132 24 -216 23 -27
28 -46 35 -125 11 -113 30 -154 111 -242 45 -47 57 -67 50 -78 -14 -22 1 -179
22 -220 10 -20 35 -50 55 -66 l37 -30 -14 -94 c-9 -62 -14 -169 -13 -314 1
-206 3 -225 27 -307 15 -47 45 -128 68 -180 30 -68 44 -113 49 -168 8 -78 28
-137 81 -242 18 -35 38 -90 46 -122 19 -84 68 -170 126 -222 l50 -45 -6 -120
c-8 -133 1 -169 52 -224 15 -16 38 -44 50 -62 l22 -32 -22 -13 c-13 -7 -64
-41 -116 -74 l-93 -61 -187 38 c-175 35 -989 139 -1095 139 -80 0 -138 -48
-138 -113 0 -13 -9 -32 -20 -42 -26 -24 -26 -81 0 -120 35 -53 28 -76 -49
-176 -47 -62 -71 -123 -71 -180 0 -27 -6 -60 -14 -72 -8 -12 -24 -62 -36 -112
-22 -95 -41 -135 -65 -135 -21 0 -48 -46 -42 -73 3 -12 12 -41 21 -64 14 -37
14 -46 0 -78 -9 -23 -12 -49 -8 -70 3 -19 0 -56 -7 -84 -11 -42 -10 -56 4 -93
8 -23 18 -58 22 -76 4 -17 26 -56 49 -85 24 -28 46 -64 49 -78 4 -15 24 -42
46 -60 68 -59 85 -76 107 -106 12 -16 46 -42 75 -57 30 -16 82 -53 117 -83 35
-29 75 -56 88 -59 40 -10 115 1 164 25 50 23 659 542 868 739 l133 125 132
-22 c142 -23 250 -27 308 -11 45 13 100 49 114 75 10 19 21 20 265 20 363 0
465 20 766 149 82 35 183 75 224 90 192 69 321 147 535 325 112 94 194 150
416 284 295 178 338 212 543 425 183 189 225 207 533 227 125 8 229 17 232 20
2 3 -13 24 -35 48 -23 23 -62 72 -88 110 -55 78 -73 92 -140 107 -39 9 -63 24
-123 80 -40 37 -92 78 -116 89 -98 47 -208 49 -327 4 -36 -13 -114 -41 -175
-63 -60 -21 -202 -76 -315 -121 l-205 -83 -112 0 c-151 -1 -151 -1 -187 194
-36 199 -35 238 13 415 32 120 37 210 16 281 -28 91 -41 112 -139 218 -103
112 -189 184 -338 282 -259 169 -524 385 -979 795 -419 379 -759 659 -817 674
-26 7 -72 40 -143 102 -432 380 -466 407 -526 419 -31 6 -33 5 -33 -22z"/>
</g>
</svg>
